<?xml version="1.0" encoding="utf-8"?>
<!-- Generator: Adobe Illustrator 27.5.0, SVG Export Plug-In . SVG Version: 6.00 Build 0)  -->
<svg version="1.1" id="Capa_1" xmlns="http://www.w3.org/2000/svg" xmlns:xlink="http://www.w3.org/1999/xlink" x="0px" y="0px"
	 viewBox="0 0 402.867 360.804" style="enable-background:new 0 0 402.867 360.804;" xml:space="preserve">
<rect y="0" style="fill:#F5F5F5;" width="402.867" height="360.804"/>
<g>
	<g>
		<polygon style="fill:#CE3336;" points="373.903,146.016 28.964,146.016 54.754,180.4 28.964,214.791 373.903,214.791 
			348.113,180.4 		"/>
		<g>
			<g>
				<g>
					
						<line style="fill:none;stroke:#9D9D9C;stroke-width:0.8167;stroke-linecap:round;stroke-linejoin:round;" x1="371.929" y1="148.648" x2="371.316" y2="148.648"/>
					
						<line style="fill:none;stroke:#9D9D9C;stroke-width:0.8167;stroke-linecap:round;stroke-linejoin:round;stroke-dasharray:1.2266,1.2266;" x1="370.09" y1="148.648" x2="32.164" y2="148.648"/>
					
						<line style="fill:none;stroke:#9D9D9C;stroke-width:0.8167;stroke-linecap:round;stroke-linejoin:round;" x1="31.551" y1="148.648" x2="30.938" y2="148.648"/>
				</g>
			</g>
			<g>
				<g>
					
						<line style="fill:none;stroke:#9D9D9C;stroke-width:0.8167;stroke-linecap:round;stroke-linejoin:round;" x1="371.929" y1="212.951" x2="371.316" y2="212.951"/>
					
						<line style="fill:none;stroke:#9D9D9C;stroke-width:0.8167;stroke-linecap:round;stroke-linejoin:round;stroke-dasharray:1.2266,1.2266;" x1="370.09" y1="212.951" x2="32.164" y2="212.951"/>
					
						<line style="fill:none;stroke:#9D9D9C;stroke-width:0.8167;stroke-linecap:round;stroke-linejoin:round;" x1="31.551" y1="212.951" x2="30.938" y2="212.951"/>
				</g>
			</g>
		</g>
	</g>
	<path style="fill:#264D65;" d="M332.128,180.4c0,3.735-7.309,7.123-7.624,10.773c-0.32,3.716,6.294,8.309,5.661,11.924
		c-0.643,3.668-8.427,5.735-9.379,9.291c-0.959,3.591,4.752,9.269,3.494,12.727c-1.271,3.492-9.299,4.169-10.859,7.508
		c-1.567,3.355,3.064,9.945,1.217,13.141c-1.855,3.205-9.881,2.479-11.998,5.501c-2.129,3.029,1.291,10.323-1.086,13.151
		c-2.379,2.833-10.158,0.722-12.77,3.342c-2.613,2.61-0.506,10.385-3.34,12.764c-2.829,2.379-10.123-1.038-13.153,1.089
		c-3.023,2.118-2.292,10.139-5.499,11.996c-3.189,1.849-9.779-2.786-13.143-1.214c-3.338,1.558-4.014,9.588-7.504,10.857
		c-3.458,1.26-9.139-4.453-12.725-3.492c-3.554,0.949-5.624,8.735-9.291,9.379c-3.615,0.63-8.207-5.982-11.922-5.661
		c-3.652,0.315-7.04,7.623-10.774,7.623c-3.731,0-7.122-7.307-10.771-7.623c-3.714-0.322-8.31,6.291-11.927,5.661
		c-3.665-0.643-5.736-8.43-9.289-9.379c-3.59-0.961-9.268,4.752-12.727,3.492c-3.486-1.269-4.164-9.299-7.504-10.857
		c-3.361-1.571-9.948,3.063-13.143,1.214c-3.207-1.857-2.477-9.878-5.501-12.001c-3.03-2.121-10.32,1.292-13.153-1.083
		c-2.83-2.378-0.725-10.154-3.336-12.768c-2.617-2.615-10.394-0.505-12.771-3.337c-2.377-2.833,1.041-10.123-1.084-13.151
		c-2.12-3.027-10.141-2.296-11.999-5.501c-1.847-3.196,2.786-9.785,1.216-13.141c-1.559-3.343-9.588-4.02-10.857-7.508
		c-1.258-3.458,4.452-9.135,3.492-12.727c-0.95-3.556-8.736-5.622-9.379-9.286c-0.632-3.619,5.983-8.212,5.661-11.928
		c-0.313-3.65-7.624-7.038-7.624-10.773c0-3.73,7.311-7.12,7.624-10.771c0.322-3.714-6.293-8.307-5.659-11.925
		c0.641-3.667,8.429-5.735,9.379-9.286c0.958-3.588-4.752-9.268-3.494-12.728c1.27-3.492,9.299-4.165,10.857-7.507
		c1.57-3.36-3.063-9.951-1.214-13.143c1.858-3.208,9.88-2.474,11.997-5.497c2.127-3.029-1.293-10.327,1.086-13.151
		c2.379-2.833,10.152-0.729,12.77-3.344c2.615-2.616,0.506-10.389,3.338-12.769c2.831-2.377,10.123,1.043,13.153-1.085
		c3.021-2.119,2.294-10.144,5.501-11.996c3.193-1.847,9.781,2.783,13.141,1.21c3.34-1.557,4.018-9.583,7.507-10.853
		c3.456-1.26,9.136,4.45,12.724,3.491c3.553-0.947,5.624-8.734,9.289-9.376c3.617-0.633,8.213,5.98,11.927,5.66
		c3.649-0.317,7.04-7.625,10.771-7.625c3.734,0,7.122,7.308,10.774,7.625c3.715,0.32,8.307-6.293,11.922-5.66
		c3.667,0.642,5.737,8.429,9.291,9.376c3.59,0.959,9.267-4.752,12.725-3.491c3.49,1.271,4.168,9.302,7.506,10.857
		c3.361,1.568,9.951-3.062,13.141-1.214c3.209,1.856,2.479,9.877,5.499,11.996c3.032,2.127,10.326-1.292,13.157,1.085
		c2.832,2.38,0.723,10.157,3.338,12.774c2.615,2.609,10.389,0.505,12.77,3.338c2.375,2.83-1.043,10.122,1.084,13.151
		c2.12,3.023,10.143,2.295,11.998,5.501c1.848,3.188-2.784,9.778-1.215,13.139c1.561,3.342,9.586,4.019,10.857,7.507
		c1.258,3.459-4.453,9.139-3.492,12.728c0.95,3.551,8.734,5.619,9.377,9.286c0.633,3.619-5.981,8.211-5.661,11.925
		C324.819,173.28,332.128,176.669,332.128,180.4z"/>
	<g>
		<g>
			<path style="fill:#FFFFFF;" d="M201.434,289.612c-60.22,0-109.212-48.992-109.212-109.212
				c0-60.216,48.992-109.208,109.212-109.208c60.22,0,109.212,48.992,109.212,109.208
				C310.646,240.62,261.653,289.612,201.434,289.612z M201.434,100.831c-43.877,0-79.573,35.694-79.573,79.569
				c0,43.881,35.696,79.574,79.573,79.574c43.875,0,79.572-35.693,79.572-79.574C281.006,136.525,245.309,100.831,201.434,100.831z"
				/>
		</g>
		<g>
			<path style="fill:#FFFFFF;" d="M201.434,296.776c-64.166,0-116.374-52.208-116.374-116.376S137.268,64.029,201.434,64.029
				S317.806,116.232,317.806,180.4S265.6,296.776,201.434,296.776z M201.434,67.207c-62.416,0-113.192,50.778-113.192,113.192
				c0,62.416,50.776,113.195,113.192,113.195c62.414,0,113.192-50.779,113.192-113.195
				C314.626,117.986,263.848,67.207,201.434,67.207z"/>
		</g>
	</g>
	<g>
		<g>
			<path style="fill:#B22E2E;" d="M282.857,152.799c0.217,0.442-17.852-12.593-17.639-12.146c0.002,0.004,0.038,0.086,0.057,0.122
				c0.019,0.042,0.038,0.083,0.058,0.118c0,0,0.004,0.004,0.006,0.009c13.368,28.162,11.862,65.654-18.611,89.664
				c11.836,2.968,11.75,2.954,26.482,6.715c8.662-9.741,14.779-18.793,20.152-34.637c6.766-19.96,4.934-42.353-3.15-63.332
				L282.857,152.799z"/>
			<path style="fill:#7D211C;" d="M246.727,230.567c0,0,20.51-11.797,27.842-26.847c0,0-2.583,15.723-14.924,30.099L246.727,230.567
				z"/>
			<path style="fill:#B22E2E;" d="M120.013,152.799c-0.222,0.442,17.849-12.593,17.632-12.146c0,0.004-0.038,0.086-0.056,0.122
				c-0.016,0.042-0.036,0.083-0.054,0.118c0,0-0.005,0.004-0.005,0.009c-13.373,28.162-11.865,65.654,18.605,89.664
				c-11.832,2.968-11.748,2.954-26.48,6.715c-8.66-9.741-14.779-18.793-20.15-34.637c-6.768-19.96-4.936-42.353,3.152-63.332
				L120.013,152.799z"/>
			<path style="fill:#7D211C;" d="M156.136,230.567c0,0-20.505-11.797-27.84-26.847c0,0,2.584,15.723,14.926,30.099L156.136,230.567
				z"/>
		</g>
		<path style="fill:#CE3336;" d="M274.569,203.72c-8.619,37.827-41.839,55.271-73.014,55.271c0,0-0.092-0.005-0.141-0.005
			c-0.041,0-0.084,0-0.128,0l-0.009,0.005c-31.174,0-64.395-17.444-73.015-55.271c-6.946,8.433-17.426,21.039-17.426,21.039
			c5.091,12.004,10.64,21.413,22.649,33.062c17.186,16.674,41.971,24.668,67.791,24.668c0.047,0,0.233,0,0.277,0
			c25.822,0,50.607-7.994,67.794-24.668c12.006-11.65,17.56-21.058,22.648-33.062C291.998,224.759,281.515,212.153,274.569,203.72z"
			/>
		<g>
			<g>
				<path style="fill:#FFFFFF;" d="M140.225,247.847c-0.279-0.259-0.571-0.517-0.839-0.776
					c-10.721-10.402-14.025-15.077-18.393-25.176l-1.723,1.916c4.066,8.374,9.185,15.97,18.461,24.967
					c0.81,0.785,1.646,1.543,2.493,2.29V247.847z"/>
			</g>
			<g>
				<path style="fill:#FFFFFF;" d="M280.448,221.895c-4.366,10.099-7.671,14.774-18.395,25.176c-0.052,0.05-0.11,0.1-0.161,0.15
					v3.257c0.615-0.557,1.223-1.123,1.817-1.701c9.275-8.997,14.395-16.592,18.459-24.967L280.448,221.895z"/>
			</g>
		</g>
		<g>
			<path style="fill:#FFFFFF;" d="M161.946,259.612c-0.441,0.592-1.67,2.277-3.689,5.055c-1.504,2.065-2.737,3.722-3.701,4.97
				c-1.444-0.904-2.854-1.936-4.227-3.093c0.861-1.287,2.642-3.745,5.342-7.375c-0.709-0.083-1.432,0.26-2.168,1.028
				c-0.418,0.442-1.075,1.34-1.973,2.695c-0.278,0.42-0.652,0.931-1.121,1.532c-0.608,0.782-0.966,1.247-1.073,1.393
				c-1.505-0.949-2.939-1.998-4.298-3.146c0.239-0.347,1.994-2.77,5.264-7.268c-0.64-0.148-1.303,0.143-1.99,0.874
				c-0.198,0.211-0.837,1.054-1.916,2.529l-2.264,3.093c-0.954-0.393-1.736-0.966-2.348-1.718c0.381-0.491,0.891-1.207,1.529-2.149
				c0.693-1.017,1.19-1.728,1.493-2.13c1.176-1.587,2.273-2.617,3.295-3.089c0.932-0.43,1.688-0.641,2.272-0.635
				c0.648,0.009,1.295,0.174,1.945,0.498c0.559,0.278,1.257,0.752,2.095,1.424c0.152,0.119,0.388,0.284,0.705,0.494
				c0.313,0.208,0.534,0.362,0.663,0.463c0.437,0.356,0.604,0.729,0.5,1.118c0.733-0.001,1.646,0.409,2.737,1.229
				C161.004,258.901,161.98,259.636,161.946,259.612z M154.461,269.023c1.101-1.453,3.391-4.559,6.871-9.315
				c-0.445-0.254-1.162-0.792-2.149-1.617c-0.838-0.7-1.501-1.134-1.988-1.302c-0.226-0.079-0.516-0.124-0.869-0.136
				c-0.409-0.017-0.686-0.04-0.829-0.073c0.311-0.346,0.406-0.625,0.285-0.837c-0.058-0.1-0.287-0.282-0.689-0.547
				c-0.232-0.148-0.751-0.561-1.557-1.237c-0.596-0.495-1.129-0.833-1.598-1.017c-1.074-0.416-2.268-0.324-3.579,0.278
				c-0.973,0.436-2.007,1.389-3.105,2.858c-0.288,0.384-0.76,1.048-1.414,1.992c-0.615,0.9-1.105,1.585-1.468,2.051
				c0.462,0.52,0.996,0.911,1.603,1.173c0.395-0.43,1.152-1.491,2.274-3.183c0.948-1.426,1.701-2.331,2.258-2.714
				c0.761-0.533,1.645-0.649,2.65-0.348c-0.307,0.429-1.259,1.725-2.857,3.889c-1.156,1.571-2.028,2.792-2.614,3.663
				c1.218,0.985,2.39,1.844,3.518,2.575c0.489-0.55,1.158-1.454,2.008-2.713c0.887-1.312,1.525-2.194,1.916-2.649
				c0.419-0.493,0.962-0.828,1.631-1.007c0.604-0.161,1.183-0.169,1.738-0.024c-3.398,4.673-5.249,7.228-5.555,7.665
				C151.984,267.298,153.157,268.156,154.461,269.023z M156.777,257.137c0.487,0.117,1.101,0.479,1.841,1.086
				c0.984,0.808,1.673,1.326,2.064,1.555c-1.112,1.619-3.218,4.496-6.316,8.632c-1.016-0.626-1.951-1.311-2.809-2.055
				c0.695-1.001,1.611-2.277,2.746-3.828c1.782-2.436,2.735-3.738,2.86-3.908c-0.523-0.347-1.113-0.484-1.769-0.412
				c-0.871,0.089-1.646,0.429-2.326,1.021c-0.262,0.229-0.928,1.14-1.998,2.731c-0.219,0.319-0.542,0.761-0.971,1.326
				c-0.449,0.594-0.767,1.029-0.955,1.305c-1.059-0.666-2.019-1.369-2.88-2.107c0.241-0.339,1.175-1.609,2.8-3.811
				c1.227-1.666,2.153-2.962,2.781-3.89c-0.615-0.261-1.236-0.375-1.864-0.34c-0.665,0.036-1.249,0.233-1.751,0.592
				c-0.302,0.214-1.033,1.114-2.192,2.698l-2.184,2.986c-0.325-0.121-0.623-0.339-0.894-0.654c0.35-0.448,0.811-1.088,1.382-1.918
				c0.611-0.896,1.046-1.514,1.304-1.856c1.014-1.356,1.973-2.23,2.877-2.622c1.326-0.583,2.446-0.674,3.359-0.275
				c0.405,0.18,0.981,0.588,1.73,1.222c0.776,0.655,1.357,1.077,1.742,1.265c-0.021,0.158-0.141,0.376-0.357,0.653
				c-0.298,0.378-0.467,0.603-0.506,0.676c0.113-0.005,0.283-0.025,0.513-0.06c0.255-0.031,0.442-0.054,0.562-0.068
				C156.034,257.036,156.438,257.055,156.777,257.137z"/>
			<path style="fill:#FFFFFF;" d="M170.802,263.163c0.273,0.311,0.304,0.789,0.092,1.432c-0.005,0.011-0.275,0.628-0.813,1.852
				c-1.871,4.266-3.111,7.055-3.72,8.369c-1.055-0.309-2.034-0.739-2.938-1.289l1.681-3.831c-0.032,0.031-0.083,0.021-0.151-0.028
				c-0.084-0.056-0.146-0.081-0.188-0.073c-0.094,0.01-0.156,0.043-0.188,0.1c-0.013,0.014-0.026,0.046-0.042,0.097
				c-0.028,0.064-0.051,0.115-0.067,0.153c-0.169,0.342-0.43,0.928-0.781,1.759c-0.354,0.849-0.595,1.406-0.724,1.67
				c-1.441-0.505-2.934-1.159-4.475-1.963l2.899-6.608c0.607-1.384,0.951-2.132,1.032-2.244c0.4-0.547,1.126-0.91,2.177-1.089
				c1.015-0.169,1.93-0.11,2.744,0.177c0.366,0.129,0.939,0.39,1.72,0.784C169.779,262.788,170.359,263.033,170.802,263.163z
				 M166.077,274.258c0.448-0.948,1.671-3.698,3.667-8.248c0.055-0.123,0.159-0.34,0.314-0.65c0.133-0.274,0.232-0.486,0.298-0.637
				c0.191-0.479,0.234-0.87,0.131-1.171c0.077,0.028-0.916-0.408-2.979-1.307c-0.789-0.346-1.683-0.466-2.683-0.361
				c-0.451,0.051-0.88,0.176-1.287,0.375c-0.43,0.221-0.73,0.48-0.898,0.777c-0.219,0.397-0.492,1.006-0.82,1.828
				c-0.474,1.181-0.77,1.908-0.891,2.182l-1.822,4.153c1.211,0.608,2.408,1.133,3.59,1.575c0.217-0.378,0.51-1.03,0.878-1.957
				c0.35-0.87,0.65-1.497,0.901-1.879c0.067,0.036,0.283,0.127,0.647,0.274c0.275,0.115,0.47,0.219,0.582,0.313l-1.663,3.791
				C164.321,273.529,164.999,273.842,166.077,274.258z M166.93,262.472c0.35,0.108,0.887,0.35,1.611,0.726
				c0.678,0.349,1.215,0.578,1.608,0.687c-1.375,3.338-2.808,6.603-4.298,9.795c-0.444-0.08-0.86-0.263-1.247-0.547l1.681-3.831
				c-0.22-0.141-0.548-0.305-0.985-0.49c-0.584-0.244-0.934-0.394-1.05-0.451c-0.248,0.39-0.545,1.002-0.892,1.835
				c-0.484,1.163-0.767,1.836-0.847,2.018c-0.999-0.349-1.94-0.762-2.825-1.239l3.468-7.904c0.294-0.364,0.854-0.604,1.68-0.722
				C165.626,262.235,166.324,262.276,166.93,262.472z M166.669,268.317c0.898-1.827,1.491-3.217,1.781-4.171
				c-1.047-0.53-1.828-0.537-2.343-0.02c-0.297,0.298-0.56,0.823-0.786,1.574c-0.259,0.866-0.48,1.444-0.665,1.733L166.669,268.317z
				 M165.235,267.208c0.055-0.124,0.201-0.517,0.44-1.179c0.188-0.5,0.353-0.875,0.495-1.127c0.444-0.751,1.019-0.909,1.724-0.472
				c-0.433,1.173-0.916,2.276-1.452,3.308L165.235,267.208z M166.234,267.119c0.061-0.153,0.244-0.571,0.551-1.256
				c0.239-0.516,0.402-0.924,0.49-1.225c-0.345-0.017-0.637,0.261-0.876,0.835c-0.024,0.072-0.114,0.327-0.269,0.765
				c-0.11,0.31-0.21,0.544-0.299,0.704C166.018,267.043,166.152,267.102,166.234,267.119z"/>
			<path style="fill:#FFFFFF;" d="M180.643,268.257c0.488,1.019,0.619,2.235,0.394,3.649c-0.234,1.442-0.775,2.676-1.625,3.703
				c-0.895,1.081-2.242,1.625-4.042,1.635c-1.441,0.009-3.25-0.34-5.426-1.046c0.339-1.359,1.148-4.394,2.427-9.104
				c0.043-0.158,0.104-0.412,0.18-0.762c0.074-0.363,0.134-0.625,0.178-0.789c0.154-0.59,0.351-0.953,0.588-1.088
				c0.215-0.124,0.602-0.116,1.159,0.023c0.092,0.019,0.315,0.08,0.67,0.182c0.254,0.069,0.442,0.114,0.564,0.135
				c1.14,0.164,2.171,0.593,3.093,1.287C179.63,266.701,180.243,267.426,180.643,268.257z M178.965,275.442
				c1.018-1.132,1.585-2.496,1.703-4.091c0.12-1.583-0.239-2.876-1.077-3.881c-0.904-1.078-2.338-1.843-4.304-2.298
				c-0.08-0.016-0.316-0.086-0.707-0.21c-0.307-0.102-0.534-0.157-0.684-0.168c-0.3-0.014-0.544,0.293-0.732,0.921
				c-0.059,0.196-0.126,0.473-0.198,0.83c-0.084,0.42-0.135,0.674-0.152,0.76c-0.204,0.819-0.614,2.329-1.23,4.529
				c-0.533,1.896-0.887,3.25-1.06,4.066C174.692,277.209,177.506,277.056,178.965,275.442z M180.105,272.218
				c-0.328,1.32-0.86,2.338-1.595,3.055c-0.744,0.727-1.81,1.084-3.196,1.072c-1.092-0.005-2.526-0.258-4.303-0.759
				c1.683-6.24,2.595-9.653,2.736-10.24c-0.002-0.037,0.019-0.071,0.064-0.101c0.043-0.025,0.058-0.012,0.044,0.039
				c2.612,0.8,3.868,1.172,3.768,1.115c1.024,0.588,1.765,1.393,2.222,2.415C180.325,269.886,180.411,271.021,180.105,272.218z
				 M174.367,275.232c1.123,0.293,2.128,0.092,3.015-0.602c0.789-0.624,1.329-1.497,1.622-2.62c0.284-1.113,0.232-2.12-0.154-3.02
				c-0.435-0.993-1.201-1.592-2.298-1.799C176.009,268.944,175.28,271.625,174.367,275.232z M176.896,267.731
				c0.831,0.293,1.389,0.869,1.671,1.729c0.25,0.778,0.243,1.629-0.02,2.554c-0.268,0.917-0.715,1.646-1.341,2.186
				c-0.689,0.59-1.45,0.802-2.285,0.636c0.21-0.909,0.51-2.069,0.899-3.481c0.604-2.222,0.922-3.396,0.956-3.52
				C176.794,267.773,176.834,267.739,176.896,267.731z M175.505,274.366c0.618,0.004,1.172-0.249,1.663-0.759
				c0.448-0.467,0.771-1.06,0.966-1.778c0.194-0.718,0.216-1.39,0.064-2.014c-0.173-0.685-0.525-1.175-1.058-1.471L175.505,274.366z
				"/>
			<path style="fill:#FFFFFF;" d="M187.808,277.272c0.171,0.047,1.142,0.168,2.913,0.362c-0.326,1.658-0.527,2.574-0.605,2.746
				c-3.603-0.432-6.09-0.794-7.463-1.086c0.276-2.192,0.553-4.277,0.829-6.256c0.03-0.221,0.068-0.553,0.112-0.996
				c0.042-0.473,0.079-0.82,0.109-1.04c0.105-0.796,0.268-1.383,0.485-1.76c0.343-0.591,0.89-1.05,1.639-1.378
				c0.731-0.324,1.509-0.464,2.331-0.42c0.287,0.017,0.656,0.062,1.107,0.137c0.572,0.098,0.957,0.158,1.155,0.179
				c0.512,0.065,0.845,0.263,1,0.592c0.145,0.316,0.146,0.772,0.005,1.367c-0.183,0.377-0.575,0.621-1.176,0.732
				c-0.061,0.009-0.32,0.044-0.778,0.104c-0.319,0.044-0.569,0.098-0.75,0.162l-0.309,2.211c0.135,0.007,0.36,0.027,0.675,0.059
				c0.305,0.025,0.548,0.041,0.729,0.049c0.146,0.955,0.032,1.868-0.338,2.739c-0.797-0.011-1.281-0.034-1.454-0.07L187.808,277.272
				z M189.785,279.89c0.101-0.258,0.18-0.572,0.238-0.943c0.08-0.492,0.131-0.792,0.152-0.902c-1.617-0.16-2.586-0.295-2.907-0.406
				c0.025-0.144,0.081-0.565,0.167-1.263c0.067-0.523,0.141-0.924,0.221-1.203c0.607,0.103,1.103,0.157,1.486,0.163
				c0.2-0.546,0.287-1.17,0.261-1.872c-0.675-0.035-1.185-0.091-1.529-0.169l0.388-2.777c0.194-0.245,0.656-0.397,1.386-0.455
				c0.719-0.06,1.17-0.224,1.357-0.494c-0.007-0.083-0.001-0.207,0.016-0.371c0.021-0.192,0.033-0.32,0.036-0.385
				c0.004-0.283-0.084-0.456-0.265-0.516c-0.105-0.015-0.514-0.078-1.226-0.189c-0.498-0.075-0.902-0.126-1.212-0.151
				c-0.874-0.057-1.683,0.076-2.425,0.398c-0.832,0.363-1.341,0.89-1.525,1.58l-0.643,4.604c-0.325,2.327-0.515,3.789-0.568,4.385
				c0.813,0.155,1.901,0.324,3.266,0.509C188.281,279.684,189.391,279.835,189.785,279.89z M186.772,278.014
				c0.259,0.089,1.215,0.238,2.866,0.445c-0.013,0.045-0.036,0.214-0.07,0.505c-0.023,0.209-0.059,0.358-0.107,0.446l-5.779-0.807
				c0.13-0.721,0.306-2.173,0.527-4.354c0.203-1.918,0.409-3.307,0.617-4.165c0.139-0.572,0.596-1.026,1.37-1.361
				c0.718-0.308,1.462-0.426,2.232-0.354c0.216,0.024,0.58,0.087,1.093,0.188c0.477,0.096,0.85,0.151,1.121,0.165l-0.091,0.653
				c-0.176,0.112-0.675,0.217-1.499,0.314c-0.65,0.081-1.055,0.309-1.214,0.683l-0.454,3.255c-0.039-0.017,0.48,0.07,1.561,0.262
				c0.029,0.341-0.018,0.675-0.14,1.001l-1.523-0.213c-0.082,0.332-0.171,0.861-0.266,1.587
				C186.882,277.27,186.801,277.853,186.772,278.014z"/>
			<path style="fill:#FFFFFF;" d="M207.504,278.035c0.152-0.005,0.368-0.026,0.648-0.064c0.286-0.038,0.505-0.06,0.657-0.064
				c0.239,0.708,0.297,1.644,0.174,2.809c-1.012,0.06-2.361,0.116-4.048,0.168c-2.677,0.076-4.077,0.119-4.199,0.128
				c-0.098-0.313-0.199-1.219-0.303-2.717c-0.029,0.007,0.512-0.024,1.623-0.093c0.015-0.868-0.003-2.022-0.053-3.463
				c-0.07-1.927-0.109-3.098-0.116-3.514c-0.147-0.037-0.377-0.062-0.688-0.076c-0.358-0.019-0.613-0.037-0.767-0.056
				c-0.207-0.645-0.277-1.507-0.211-2.588c0.673-0.056,1.899-0.099,3.681-0.13c1.74-0.024,2.943-0.069,3.609-0.137
				c0.327-0.034,0.471-0.053,0.43-0.057c0.418,0.064,0.679,0.357,0.783,0.882c0.027,0.157,0.057,0.411,0.085,0.762
				c0.028,0.375,0.058,0.652,0.087,0.832c-0.727,0.222-1.262,0.341-1.607,0.357L207.504,278.035z M208.531,280.289
				c0.14-0.784,0.106-1.413-0.102-1.887c-0.813,0.083-1.277,0.112-1.396,0.086c-0.015-0.457-0.059-1.806-0.133-4.049
				c-0.057-1.663-0.079-2.961-0.066-3.893c0.499,0.008,1.007-0.051,1.525-0.178c-0.009-0.117-0.018-0.284-0.023-0.501
				c-0.002-0.228-0.007-0.393-0.016-0.492c-0.034-0.362-0.156-0.599-0.364-0.71c-0.866,0.062-2.052,0.113-3.557,0.153
				c-2.226,0.068-3.468,0.106-3.725,0.114c0.061,1.042,0.107,1.612,0.14,1.71c0.166,0.042,0.664,0.056,1.496,0.043
				c0.007,0.205,0.061,1.539,0.167,4.004c0.066,1.598,0.077,2.926,0.033,3.982l-1.581,0.048c0.027,0.902,0.075,1.501,0.143,1.798
				L208.531,280.289z M206.606,278.898c0.113,0.049,0.608,0.049,1.486-0.001c0.09,0.267,0.1,0.589,0.029,0.966l-6.668,0.204
				c-0.088-0.402-0.098-0.709-0.027-0.922l1.537-0.047c0.047-0.963,0.028-2.407-0.054-4.333c-0.096-2.184-0.139-3.695-0.13-4.533
				c-1.096,0.004-1.638,0.006-1.626,0.006l-0.027-0.879c0.346-0.016,1.473-0.048,3.383-0.094c1.347-0.036,2.441-0.086,3.284-0.153
				c0.012,0.029,0.039,0.336,0.08,0.921c-0.116,0.021-0.599,0.05-1.447,0.088c-0.05,1.069-0.041,2.514,0.026,4.335
				C206.546,276.895,206.597,278.376,206.606,278.898z"/>
			<path style="fill:#FFFFFF;" d="M219.302,266.759c1.075,7.565,1.652,11.726,1.733,12.484c-0.704,0.008-1.39-0.21-2.058-0.651
				c-0.151-0.103-0.688-0.543-1.612-1.32c-1.107-0.935-1.847-1.523-2.22-1.765l0.623,4.288c-0.32-0.125-0.833-0.169-1.538-0.132
				c-0.776,0.036-1.302,0.023-1.577-0.037c-0.074-0.552-0.357-2.503-0.85-5.854c-0.352-2.376-0.618-4.312-0.8-5.808
				c0.101-0.002,0.32,0.024,0.66,0.082c0.31,0.05,0.54,0.07,0.692,0.06c0.931-0.076,1.387-0.116,1.369-0.119
				c0.159,0.042,0.672,0.412,1.537,1.109c0.148,0.126,0.401,0.32,0.76,0.582c0.318,0.238,0.566,0.433,0.742,0.585l-0.393-2.705
				C217.919,267.286,218.895,267.02,219.302,266.759z M220.499,278.735c-0.143-1.471-0.382-3.346-0.719-5.624
				c-0.496-3.332-0.775-5.237-0.839-5.713c-0.131,0.072-0.817,0.24-2.059,0.503l0.488,3.357c-0.584-0.43-1.524-1.158-2.822-2.184
				c-0.561-0.445-0.889-0.676-0.979-0.692c-0.189-0.032-0.529,0.003-1.023,0.104c-0.448,0.095-0.798,0.092-1.05-0.007l0.018,0.122
				c0.159,1.09,0.425,2.926,0.8,5.506c0.35,2.413,0.599,4.12,0.744,5.123c0.195,0.043,0.573,0.035,1.134-0.022
				c0.514-0.051,0.873-0.038,1.08,0.039l-0.689-4.74c0.708,0.513,2.013,1.546,3.914,3.1c0.645,0.528,0.951,0.779,0.918,0.755
				C219.764,278.605,220.126,278.73,220.499,278.735z M218.616,268.031c0.051,0.389,0.301,2.109,0.749,5.158
				c0.31,2.093,0.538,3.768,0.686,5.025c-0.755-0.506-1.765-1.283-3.029-2.331c-1.374-1.144-2.375-1.94-3.003-2.388l0.761,5.236
				c-0.132-0.011-0.359,0.011-0.684,0.063c-0.314,0.045-0.538,0.064-0.676,0.054l-1.432-9.855c0.152,0.025,0.379-0.004,0.68-0.09
				c0.313-0.093,0.55-0.13,0.712-0.112c0.15,0.014,0.35,0.124,0.599,0.331c0.061,0.056,0.16,0.146,0.297,0.268
				c0.123,0.112,0.211,0.189,0.264,0.228c0.984,0.787,2.114,1.653,3.389,2.599l-0.576-3.966c0.102-0.033,0.305-0.065,0.607-0.097
				C218.251,268.123,218.47,268.082,218.616,268.031z"/>
			<path style="fill:#FFFFFF;" d="M235.49,261.984c0.174,0.479,0.867,2.381,2.081,5.705c0.855,2.339,1.554,4.267,2.093,5.786
				c-0.307,0.118-0.718,0.292-1.232,0.522c-0.743,0.338-1.172,0.532-1.285,0.579c-1.028,0.448-1.81,0.701-2.344,0.757
				c-0.547,0.056-1.193-0.034-1.939-0.268c-0.661-0.208-1.302-0.537-1.919-0.986c-0.735-0.531-1.26-1.116-1.573-1.757
				c-0.324-0.668-0.733-1.794-1.228-3.378c-0.513-1.653-0.967-2.903-1.362-3.751c1.563-0.674,2.409-1.056,2.538-1.146l0.083-0.03
				c0.347,0.784,0.789,1.914,1.325,3.39c0.726,1.999,1.086,2.99,1.08,2.974c0.464,1.004,1.045,1.59,1.743,1.761
				c-0.32-1.019-0.822-2.435-1.507-4.25c-0.712-1.892-1.207-3.264-1.486-4.117c0.504-0.176,1.385-0.497,2.643-0.96
				C234.298,262.417,235.061,262.14,235.49,261.984z M239.074,273.268c-0.247-0.733-1.525-4.293-3.832-10.68
				c-0.452,0.146-1.114,0.383-1.986,0.712c-1.009,0.379-1.719,0.64-2.128,0.783c0.229,0.646,0.767,2.103,1.615,4.369
				c0.664,1.778,1.162,3.218,1.494,4.32c-0.725-0.005-1.358-0.28-1.898-0.825c-0.442-0.444-0.854-1.121-1.233-2.03
				c-0.199-0.463-0.51-1.335-0.932-2.616c-0.385-1.163-0.713-2.032-0.984-2.607c-0.53,0.274-1.132,0.523-1.804,0.749
				c0.355,0.719,0.771,1.902,1.251,3.548c0.445,1.534,0.856,2.632,1.233,3.292c0.3,0.533,0.764,1.022,1.393,1.467
				c0.566,0.412,1.154,0.709,1.764,0.893c0.826,0.249,1.508,0.307,2.046,0.173c0.499-0.119,1.17-0.366,2.013-0.74
				C238.033,273.662,238.695,273.393,239.074,273.268z M231.688,264.337c0.094-0.034,0.661-0.24,1.702-0.618
				c0.696-0.247,1.209-0.449,1.538-0.605c0.85,2.167,2.053,5.479,3.609,9.938c-0.443,0.099-1.109,0.353-1.995,0.762
				c-0.8,0.371-1.41,0.581-1.829,0.627c-0.444,0.049-0.982-0.033-1.614-0.246c-1.455-0.488-2.46-1.351-3.016-2.589
				c-0.238-0.537-0.582-1.472-1.028-2.806c-0.472-1.418-0.844-2.452-1.117-3.101c0.105-0.038,0.292-0.106,0.561-0.204
				c0.24-0.094,0.392-0.148,0.454-0.165c0.003,0.024,0.021,0.033,0.057,0.026c0.232,0.52,0.563,1.448,0.992,2.782
				c0.393,1.254,0.728,2.161,1.006,2.72c0.849,1.7,2.131,2.477,3.85,2.333c-0.313-1.015-0.815-2.457-1.506-4.325
				C232.395,266.284,231.841,264.774,231.688,264.337z"/>
			<path style="fill:#FFFFFF;" d="M247.974,262.024c0.245,0.212,0.527,0.659,0.847,1.339c0.548,1.177,0.677,2.366,0.387,3.567
				c-0.306,1.271-1.025,2.271-2.16,3.004c-1.421,0.918-2.618,1.29-3.594,1.116c-0.156-0.027-0.369-0.103-0.64-0.227
				c-0.317-0.146-0.557-0.24-0.721-0.283c0.12-0.543,0.383-1.36,0.788-2.451c0.091-0.017,0.276-0.026,0.557-0.028
				c0.342-0.002,0.588-0.012,0.739-0.029c0.635-0.052,1-0.245,1.095-0.58c0.043-0.164-0.026-0.374-0.209-0.628
				c-0.287-0.396-0.441-0.619-0.462-0.668c-0.243,0.129-0.539,0.304-0.886,0.523c-0.375,0.243-0.626,0.399-0.754,0.47
				c-0.535,0.291-1.024,0.389-1.467,0.293c-0.73-0.156-1.318-0.711-1.762-1.665c-0.546-1.185-0.716-2.374-0.509-3.569
				c0.206-1.208,0.765-2.223,1.675-3.045c0.37-0.333,1.003-0.739,1.897-1.217c0.988-0.524,1.623-0.891,1.902-1.1
				c0.261,1.216,0.285,2.313,0.071,3.29c-0.143,0.153-0.379,0.295-0.709,0.425c-0.335,0.133-0.547,0.241-0.635,0.323
				c-0.227,0.22-0.25,0.545-0.07,0.975c0.062,0.147,0.164,0.344,0.31,0.592c0.174,0.312,0.283,0.516,0.33,0.611
				c0.296-0.118,0.791-0.397,1.485-0.837c0.543-0.349,0.993-0.546,1.351-0.591c0.146-0.014,0.359,0.031,0.64,0.137
				C247.724,261.865,247.892,261.949,247.974,262.024z M248.819,266.794c0.257-1.236,0.057-2.446-0.603-3.628
				c-0.422-0.758-0.878-1.107-1.368-1.049c-0.353,0.042-0.87,0.287-1.553,0.734c-0.717,0.473-1.203,0.737-1.46,0.793
				c-0.471-0.737-0.774-1.282-0.911-1.636c-0.225-0.62-0.177-1.088,0.143-1.407c0.098-0.102,0.29-0.212,0.579-0.333
				c0.311-0.126,0.543-0.252,0.695-0.377c0.167-0.831,0.171-1.584,0.01-2.259c-0.236,0.165-0.728,0.428-1.472,0.789
				c-0.686,0.335-1.222,0.661-1.609,0.977c-0.806,0.65-1.339,1.534-1.602,2.652c-0.135,0.565-0.137,1.223-0.007,1.976
				c0.125,0.729,0.336,1.355,0.635,1.88c0.37,0.652,0.82,1.022,1.352,1.108c0.365,0.065,0.854-0.097,1.47-0.486
				c0.832-0.517,1.399-0.83,1.701-0.938c0.083,0.209,0.257,0.491,0.521,0.847c0.224,0.305,0.354,0.57,0.394,0.797
				c0.082,0.497-0.218,0.862-0.9,1.094c-0.501,0.172-1.036,0.242-1.604,0.209c-0.259,0.56-0.457,1.143-0.596,1.75
				c0.55,0.264,1.17,0.348,1.86,0.251c0.637-0.086,1.271-0.314,1.901-0.686c0.611-0.36,1.133-0.808,1.566-1.344
				C248.413,267.957,248.698,267.385,248.819,266.794z M246.869,262.589c0.065-0.003,0.15,0.017,0.255,0.06
				c0.109,0.04,0.192,0.057,0.25,0.052c0.926,1.289,1.263,2.563,1.012,3.823c-0.247,1.23-0.995,2.211-2.245,2.941
				c-1.238,0.716-2.205,0.913-2.901,0.589c-0.053-0.179,0.053-0.549,0.316-1.112c0.635,0.056,1.237-0.072,1.809-0.383
				c0.65-0.362,0.92-0.834,0.811-1.417c-0.051-0.26-0.219-0.592-0.505-0.997c-0.344-0.486-0.57-0.863-0.68-1.131
				c-0.523,0.218-1.154,0.553-1.895,1.005c-0.564,0.348-1.007,0.517-1.327,0.507c-0.392-0.003-0.742-0.254-1.053-0.752
				c-0.251-0.39-0.44-0.888-0.57-1.493c-0.123-0.595-0.158-1.146-0.104-1.652c0.186-1.787,1.504-3.225,3.955-4.315
				c0.041,0.206,0.021,0.642-0.056,1.309c-0.143,0.106-0.363,0.222-0.661,0.348c-0.261,0.111-0.437,0.216-0.529,0.315
				c-0.403,0.419-0.485,1.008-0.244,1.766c0.151,0.452,0.526,1.185,1.125,2.2c0.314-0.074,0.855-0.368,1.621-0.882
				C245.967,262.883,246.507,262.624,246.869,262.589z"/>
			<path style="fill:#FFFFFF;" d="M252.629,250.644c0.401-0.102,0.841,0.087,1.318,0.567c0.007,0.009,0.435,0.53,1.281,1.563
				c2.954,3.602,4.879,5.972,5.774,7.109c-0.754,0.8-1.581,1.478-2.48,2.035l-2.653-3.235c0.013,0.043-0.018,0.083-0.094,0.122
				c-0.088,0.049-0.138,0.095-0.15,0.135c-0.034,0.088-0.032,0.159,0.004,0.213c0.007,0.017,0.029,0.044,0.067,0.082
				c0.044,0.054,0.079,0.097,0.105,0.129c0.228,0.306,0.633,0.804,1.214,1.494c0.597,0.7,0.983,1.167,1.16,1.401
				c-1.104,1.057-2.363,2.09-3.778,3.099l-4.576-5.58c-0.958-1.168-1.469-1.814-1.532-1.938c-0.307-0.604-0.301-1.416,0.017-2.434
				c0.309-0.981,0.776-1.77,1.401-2.366c0.28-0.268,0.773-0.66,1.477-1.178C251.831,251.386,252.313,250.979,252.629,250.644z
				 M260.378,259.884c-0.643-0.83-2.539-3.165-5.69-7.007c-0.085-0.104-0.23-0.295-0.436-0.574
				c-0.184-0.243-0.328-0.428-0.433-0.555c-0.34-0.388-0.669-0.604-0.984-0.647c0.059-0.057-0.778,0.631-2.515,2.062
				c-0.666,0.546-1.179,1.289-1.538,2.227c-0.158,0.426-0.241,0.865-0.249,1.318c0.003,0.483,0.098,0.868,0.286,1.152
				c0.254,0.375,0.674,0.896,1.257,1.561c0.838,0.957,1.353,1.551,1.542,1.782l2.876,3.506c1.091-0.804,2.101-1.632,3.03-2.486
				c-0.238-0.365-0.688-0.921-1.346-1.669c-0.617-0.706-1.04-1.258-1.267-1.655c0.063-0.044,0.241-0.195,0.538-0.453
				c0.227-0.194,0.408-0.319,0.543-0.377l2.625,3.201C258.932,261.12,259.518,260.657,260.378,259.884z M250.258,253.782
				c0.255-0.262,0.714-0.631,1.377-1.107c0.619-0.446,1.066-0.821,1.342-1.123c2.353,2.739,4.613,5.496,6.783,8.271
				c-0.273,0.36-0.624,0.648-1.054,0.864l-2.653-3.235c-0.225,0.132-0.52,0.351-0.883,0.656c-0.481,0.41-0.774,0.654-0.878,0.731
				c0.235,0.398,0.646,0.94,1.232,1.627c0.816,0.96,1.288,1.516,1.415,1.67c-0.764,0.732-1.559,1.384-2.386,1.956l-5.473-6.673
				c-0.191-0.427-0.152-1.035,0.117-1.824C249.456,254.837,249.809,254.233,250.258,253.782z M255.351,256.664
				c-1.222-1.628-2.191-2.787-2.91-3.478c-0.947,0.693-1.307,1.386-1.08,2.079c0.131,0.4,0.48,0.872,1.047,1.415
				c0.654,0.623,1.069,1.082,1.244,1.378L255.351,256.664z M253.712,257.439c-0.085-0.104-0.369-0.413-0.851-0.927
				c-0.361-0.394-0.621-0.71-0.78-0.951c-0.469-0.737-0.349-1.321,0.36-1.751c0.85,0.917,1.613,1.848,2.29,2.793L253.712,257.439z
				 M254.085,256.508c-0.108-0.123-0.397-0.476-0.869-1.06c-0.352-0.447-0.642-0.777-0.87-0.991
				c-0.171,0.299-0.055,0.686,0.348,1.158c0.053,0.055,0.24,0.251,0.561,0.586c0.226,0.239,0.391,0.434,0.492,0.585
				C253.92,256.667,254.033,256.574,254.085,256.508z"/>
		</g>
	</g>
	<g>
		<polygon style="fill:#CE3336;" points="203.995,80.845 211.961,80.964 205.602,85.762 207.946,93.378 201.42,88.811 
			194.903,93.396 197.23,85.775 190.855,80.992 198.821,80.854 201.401,73.316 		"/>
		<g>
			<polygon style="fill:#CE3336;" points="226.294,89.236 232.515,89.331 227.546,93.079 229.383,99.024 224.28,95.46 
				219.191,99.038 221.007,93.088 216.028,89.354 222.249,89.24 224.265,83.355 			"/>
			<polygon style="fill:#CE3336;" points="176.525,89.236 170.304,89.331 175.27,93.079 173.439,99.024 178.537,95.46 
				183.63,99.038 181.811,93.088 186.79,89.354 180.567,89.24 178.554,83.355 			"/>
		</g>
		<g>
			<polygon style="fill:#CE3336;" points="246.733,98.454 252.374,98.535 247.87,101.931 249.53,107.325 244.91,104.091 
				240.296,107.334 241.942,101.941 237.434,98.558 243.068,98.454 244.896,93.12 			"/>
			<polygon style="fill:#CE3336;" points="156.083,98.454 150.445,98.535 154.947,101.931 153.286,107.325 157.909,104.091 
				162.52,107.334 160.877,101.941 165.386,98.558 159.751,98.454 157.925,93.12 			"/>
		</g>
	</g>
	<g>
		<path style="fill:#DADADA;" d="M250.88,142.346l-62.807-21.718c0,0-4.693,24.189-7.543,53.187
			c-2.326,23.702-6,49.904-17.299,62.257c-0.012,0.013,35.873,12.422,35.872,12.405c-1.253-16.694,12.044-39.569,24.854-59.647
			C239.629,164.267,250.88,142.346,250.88,142.346z"/>
		<path style="fill:#FCBE00;" d="M241.362,155.215l-53.611-18.538c0,0-3.979,20.904-6.495,45.917
			c-2.056,20.445-5.27,43.046-14.966,53.731c-0.01,0.01,30.65,10.612,30.649,10.597c-1.027-14.391,10.41-34.15,21.421-51.499
			C231.833,174.201,241.362,155.215,241.362,155.215z"/>
		<path style="fill:#B2B2B2;" d="M199.018,248.385c0.001-0.013,0-0.025-0.003-0.04l-17.85-6.171l-0.146-0.051l-17.851-6.172
			c-0.009,0.01-0.017,0.019-0.025,0.028c0,0-2.236,4.857-0.886,5.959c5.914,4.823,11.113,7.288,15.682,9.087l-0.002,0.006
			c0.025,0.009,0.051,0.015,0.076,0.022c0.023,0.01,0.047,0.021,0.072,0.029l0.002-0.006c4.704,1.408,10.314,2.681,17.946,2.54
			C197.774,253.585,199.018,248.385,199.018,248.385z"/>
		<path style="opacity:0.5;fill:#FFFFFF;" d="M197.786,248.36c-0.124,0.007-0.26-0.001-0.408-0.03
			c-6.955-1.365-12.327-2.972-16.893-4.47l-0.002,0.002c-0.023-0.008-0.047-0.019-0.072-0.026c-0.023-0.008-0.047-0.016-0.07-0.024
			v-0.002c-4.516-1.643-9.732-3.696-16.047-6.92c-0.132-0.068-0.244-0.146-0.337-0.227c-1.099,0.072-1.311,1.471-1.341,1.724
			c-0.133,0.219-0.83,1.447-0.012,2.185c0.125-0.009,0.259,0,0.408,0.029c6.955,1.364,12.326,2.972,16.893,4.47l0.002-0.001
			c0.021,0.008,0.047,0.018,0.069,0.025c0.025,0.008,0.05,0.017,0.073,0.025v0.001c4.516,1.643,9.732,3.697,16.045,6.92
			c0.135,0.069,0.246,0.144,0.339,0.229c1.1-0.075,1.31-1.471,1.34-1.725C197.905,250.326,198.605,249.095,197.786,248.36z"/>
		<path style="fill:#E49200;" d="M240.189,157.521c0.408-0.8,0.704-1.33,1.183-2.277L187.743,136.7
			c-0.182,0.958-0.264,1.447-0.473,2.523c0,0,14.416,7.549,25.867,11.509C223.787,154.415,240.189,157.521,240.189,157.521z"/>
		<g style="opacity:0.3;">
			<path style="fill:#F4F2F3;" d="M244.743,140.135l-8.308-2.873c-3.41,6.566-13.48,25.543-26.465,46.355
				c-12.452,19.953-25.366,42.516-25.86,59.598c5.09,1.757,8.857,3.055,8.855,3.051c-1.254-16.694,12.044-39.569,24.854-59.647
				C233.491,162.056,244.743,140.135,244.743,140.135z"/>
			<path style="fill:#F4F2F3;" d="M199.718,124.655l4.029,1.394c-1.897,7.088-7.313,27.675-12.621,51.141
				c-5.088,22.498-11.221,47.408-18.893,62.007c-2.47-0.856-4.295-1.491-4.291-1.495c8.064-13.47,14.217-38.816,19.244-61.585
				C193.337,148.26,199.718,124.655,199.718,124.655z"/>
		</g>
		<path style="fill:#FFFFFF;" d="M185.845,154.386c-0.123,2.57,2.267,4.423,4.805,4.982c2.764,0.61,5.707-0.319,5.77-3.535
			c0.1-4.889-2.465-20.538,6.714-23.356c0,0,3.679-1.447,9.513,1.081c1.275,0.553,2.656,1.296,4.125,2.288
			c1.368,0.923,3.12,1.861,5.11,2.761c1.587,0.718,3.327,1.412,5.144,2.056c2.952,1.046,6.105,1.962,9.15,2.638
			c2.426,0.54,4.779,0.926,6.907,1.105c3.808,0.321,6.88-0.024,8.298-1.351c0.615-0.576,1.334-1.434,1.377-2.646
			c0.031-0.925-0.327-2.055-1.422-3.425c-0.824-1.033-2.064-2.2-3.869-3.518c-1.18-0.863-3.855-2.247-7.452-3.868
			c-6.403-2.887-15.729-6.527-24.749-9.325c-4.517-1.4-8.956-2.59-12.914-3.367c-6.185-1.215-11.192-1.424-13.48,0.137
			c-1.714,1.169-2.884,2.902-3.149,5.565c-0.234,2.318,0.215,5.341,1.584,9.313c3.621,10.512,5.045,13.25,0.179,18.916
			C186.384,152.117,185.895,153.314,185.845,154.386z"/>
	</g>
</g>
</svg>
